<?xml version="1.0" encoding="UTF-8" standalone="no"?>
<!-- Created with Inkscape (http://www.inkscape.org/) -->

<svg
   xmlns:dc="http://purl.org/dc/elements/1.1/"
   xmlns:cc="http://creativecommons.org/ns#"
   xmlns:rdf="http://www.w3.org/1999/02/22-rdf-syntax-ns#"
   xmlns:svg="http://www.w3.org/2000/svg"
   xmlns="http://www.w3.org/2000/svg"
   xmlns:sodipodi="http://sodipodi.sourceforge.net/DTD/sodipodi-0.dtd"
   xmlns:inkscape="http://www.inkscape.org/namespaces/inkscape"
   width="1280"
   height="720"
   viewBox="0 0 744.09449 0"
   id="svg2"
   version="1.1"
   inkscape:version="0.91 r13725"
   sodipodi:docname="mockup.svg">
  <defs
     id="defs4" />
  <sodipodi:namedview
     id="base"
     pagecolor="#ffffff"
     bordercolor="#666666"
     borderopacity="1.0"
     inkscape:pageopacity="0.0"
     inkscape:pageshadow="2"
     inkscape:zoom="0.65628348"
     inkscape:cx="446.13947"
     inkscape:cy="354.52747"
     inkscape:document-units="px"
     inkscape:current-layer="layer1"
     showgrid="false"
     units="px"
     showborder="true"
     inkscape:showpageshadow="false"
     inkscape:window-width="1638"
     inkscape:window-height="859"
     inkscape:window-x="-8"
     inkscape:window-y="-8"
     inkscape:window-maximized="1"
     showguides="true"
     inkscape:guide-bbox="true">
    <sodipodi:guide
       position="640,837.22054"
       orientation="1,0"
       id="guide3343" />
  </sodipodi:namedview>
  <metadata
     id="metadata7">
    <rdf:RDF>
      <cc:Work
         rdf:about="">
        <dc:format>image/svg+xml</dc:format>
        <dc:type
           rdf:resource="http://purl.org/dc/dcmitype/StillImage" />
        <dc:title />
      </cc:Work>
    </rdf:RDF>
  </metadata>
  <g
     inkscape:label="Layer 1"
     inkscape:groupmode="layer"
     id="layer1"
     transform="translate(0,-532.3623)">
    <rect
       style="fill:none;fill-rule:evenodd;stroke:#000000;stroke-width:1.00117266px;stroke-linecap:butt;stroke-linejoin:miter;stroke-opacity:1"
       id="rect3345"
       width="918.99884"
       height="718.99884"
       x="180.5006"
       y="532.86285" />
    <rect
       style="fill:none"
       id="rect4147"
       width="918.42902"
       height="92.809654"
       x="179.81873"
       y="622.02997"
       ry="0" />
    <rect
       style="fill:none"
       id="rect4149"
       width="920.36255"
       height="106.34444"
       x="179.81873"
       y="612.3623" />
    <rect
       style="fill:none"
       id="rect4151"
       width="438.91238"
       height="222.35649"
       x="288.09668"
       y="685.83661" />
    <rect
       style="fill:none"
       id="rect4153"
       width="212.68883"
       height="61.873112"
       x="427.31119"
       y="622.02997" />
    <rect
       style="fill:none"
       id="rect4155"
       width="85.075531"
       height="168.21753"
       x="44.471298"
       y="662.63422" />
    <rect
       style="fill:none"
       id="rect4157"
       width="496.91843"
       height="152.74925"
       x="143.08157"
       y="366.80338" />
    <rect
       style="fill:none"
       id="rect4159"
       width="655.46826"
       height="261.02719"
       x="210.75528"
       y="558.22333" />
    <rect
       style="fill:#000000;fill-opacity:1;stroke:#000000;stroke-width:0.89272755;stroke-opacity:1"
       id="rect4161"
       width="914.66925"
       height="99.456459"
       x="181.69862"
       y="536.90082" />
    <rect
       style="fill:#ffffff;fill-opacity:1;stroke:#000000;stroke-width:1.25760162;stroke-opacity:1"
       id="rect4183"
       width="819.58521"
       height="197.70363"
       x="230.22676"
       y="660.00446"
       transform="matrix(0.9999698,-0.00777182,0,1,0,0)" />
    <text
       xml:space="preserve"
       style="font-style:normal;font-weight:normal;font-size:40px;line-height:125%;font-family:sans-serif;letter-spacing:0px;word-spacing:0px;fill:#000000;fill-opacity:1;stroke:none;stroke-width:1px;stroke-linecap:butt;stroke-linejoin:miter;stroke-opacity:1"
       x="425.44412"
       y="923.19006"
       id="text4185"
       sodipodi:linespacing="125%"><tspan
         sodipodi:role="line"
         id="tspan4187"
         x="425.44412"
         y="923.19006">Kwantitative Analysis</tspan></text>
    <path
       style="fill:none;fill-rule:evenodd;stroke:#000000;stroke-width:1px;stroke-linecap:butt;stroke-linejoin:miter;stroke-opacity:1"
       d="m 429.24471,944.39251 c 2.57805,-0.64451 7.08963,-4.51158 7.73414,-1.93353 0.64451,2.57804 -7.73414,-0.72386 -7.73414,1.93353 0,10.62496 8.96787,-1.93353 9.66768,-1.93353 0.64451,0 -0.45574,1.47779 0,1.93353 1.68947,1.68947 3.11197,-1.93353 3.86707,-1.93353 0.64451,0 -0.64452,1.93353 0,1.93353 0.91147,0 1.02205,-1.93353 1.93353,-1.93353 0.64451,0 -0.64451,1.93353 0,1.93353 0.91148,0 1.28902,-2.57804 1.93354,-1.93353 0.64451,0.64451 -1.93354,1.02205 -1.93354,1.93353 0,0.64451 1.28902,0 1.93354,0 0.64451,0 1.35706,0.28824 1.93353,0 0.81525,-0.40762 1.28902,-2.57804 1.93354,-1.93353 0.64451,0.64451 -1.28903,2.57804 -1.93354,1.93353 -0.64451,-0.64451 1.02206,-1.93353 1.93354,-1.93353 0.64451,0 -0.64452,1.93353 0,1.93353 0.91147,0 1.02205,-1.93353 1.93353,-1.93353 0.64451,0 -0.45574,1.47779 0,1.93353 0.45574,0.45574 1.28902,0 1.93353,0 0.64452,0 1.28903,0 1.93354,0 0.64451,0 1.93353,-0.64451 1.93353,0 0,0.64451 -1.93353,0.64451 -1.93353,0 0,-0.64451 1.28902,0 1.93353,0 0.64452,0 1.28903,0 1.93354,0 0.64451,0 1.93353,-0.64451 1.93353,0 0,0.64451 -1.93353,0.64451 -1.93353,0 0,-0.64451 1.28902,0 1.93353,0 0.64452,0 1.28903,0 1.93354,0 0.64451,0 1.93353,-0.64451 1.93353,0 0,0.64451 -1.93353,0.64451 -1.93353,0 0,-0.64451 1.28902,0 1.93353,0 0.64451,0 1.93354,-0.64451 1.93354,0 0,0.64451 -1.93354,0.64451 -1.93354,0 0,-0.64451 1.28903,0 1.93354,0 0.64451,0 1.93353,-0.64451 1.93353,0 0,0.64451 -1.93353,0.64451 -1.93353,0 0,-0.64451 1.28902,0 1.93353,0 0.64451,0 1.28903,0 1.93354,0 0.64451,0 1.28902,0 1.93353,0 0.64451,0 1.93354,-0.64451 1.93354,0 0,0.64451 -1.93354,0.64451 -1.93354,0 0,-0.64451 1.93354,-0.64451 1.93354,0 0,0.64451 -2.57805,0 -1.93354,0 1.28903,0 2.57805,0 3.86707,0 0.64451,0 -1.93353,0.64451 -1.93353,0 0,-0.64451 1.28902,0 1.93353,0 0.64451,0 1.28902,0 1.93354,0 0.64451,0 1.28902,0 1.93353,0 0.64451,0 1.93354,-0.64451 1.93354,0 0,0.64451 -2.57805,0 -1.93354,0 1.28902,0 2.57805,0 3.86707,0 0.64451,0 -1.93353,0.64451 -1.93353,0 0,-0.64451 1.28902,0 1.93353,0 0.64451,0 1.4778,-0.45574 1.93354,0 0.45573,0.45574 -0.45574,1.4778 0,1.93354 0.91147,0.91147 3.86706,-1.28903 3.86706,0 0,0.64451 -2.57804,0 -1.93353,0 3.53399,0 8.06722,0 11.60121,0 0.64451,0 -1.93354,0.64451 -1.93354,0 0,-0.64452 1.28903,0 1.93354,0 0.64451,0 1.28902,0 1.93353,0 0.64451,0 1.28903,0 1.93354,0 0.64451,0 1.93353,-0.64452 1.93353,0 0,0.64451 -2.57804,0 -1.93353,0 1.93353,0 3.86707,0 5.8006,0 0.64451,0 1.4778,-0.45574 1.93354,0 0.45574,0.45573 -0.45574,1.47779 0,1.93353 0.45574,0.45574 1.93353,-0.64451 1.93353,0 0,0.64451 -2.57804,0 -1.93353,0 3.53399,0 8.06722,0 11.60121,0 0.64451,0 -1.93354,0.64451 -1.93354,0 0,-0.64451 1.28902,0 1.93354,0 1.28902,0 2.57804,0 3.86706,0 0.64452,0 1.93354,-0.64451 1.93354,0 0,0.64451 -2.57805,0 -1.93354,0 1.28903,0 2.57805,0 3.86707,0 0.64452,0 -1.93353,0.64451 -1.93353,0 0,-0.64451 1.28902,0 1.93353,0 0.64452,0 1.28903,0 1.93354,0 0.64451,0 1.28902,0 1.93353,0 0.64452,0 1.93354,-0.64451 1.93354,0 0,0.64451 -2.57805,0 -1.93354,0 1.28903,0 2.57805,0 3.86707,0 0.64451,0 -1.93353,0.64451 -1.93353,0 0,-0.64451 1.28902,0 1.93353,0 0.64451,0 1.28903,0 1.93354,0 0.64451,0 1.28902,0 1.93353,0 0.64451,0 1.93354,-0.64451 1.93354,0 0,0.64451 -2.57805,0 -1.93354,0 4.47474,0 2.52319,0 9.66768,0 0.64451,0 1.28902,0 1.93353,0 0.64451,0 1.93354,-0.64451 1.93354,0 0,0.64451 -2.57805,0 -1.93354,0 1.28902,0 2.57805,0 3.86707,0 0.64451,0 1.93354,-0.64451 1.93354,0 0,0.64451 -2.57805,0 -1.93354,0 1.28902,0 2.57805,0 3.86707,0 0.64451,0 1.93354,-0.64451 1.93354,0 0,0.64451 -2.57805,0 -1.93354,0 1.28902,0 2.57805,0 3.86707,0 0.64451,0 1.93353,-0.64451 1.93353,0 0,0.64451 -2.57804,0 -1.93353,0 1.28902,0 2.57805,0 3.86707,0 0.64451,0 1.93353,-0.64451 1.93353,0 0,0.64451 -2.57804,0 -1.93353,0 8.71069,0 5.24295,0 13.53474,0 0.46894,0 5.73842,0.0622 5.80061,0 0.45574,-0.45574 -0.45574,-1.4778 0,-1.93353 0.45574,-0.45574 1.47779,-0.45574 1.93353,0 0.45574,0.45573 -0.64451,1.93353 0,1.93353 0.91148,0 1.11829,-1.52591 1.93354,-1.93353 0.57646,-0.28824 1.93353,-0.64452 1.93353,0 0,0.91147 -1.28902,2.57804 -1.93353,1.93353 -0.64452,-0.64451 1.02205,-1.93353 1.93353,-1.93353 0.64451,0 -0.64451,1.93353 0,1.93353 0.91148,0 1.02206,-1.93353 1.93354,-1.93353 0.64451,0 -0.64452,1.93353 0,1.93353 0.91147,0 1.02205,-1.93353 1.93353,-1.93353 0.64451,0 -0.64451,1.93353 0,1.93353 0.91148,0 1.02206,-1.93353 1.93354,-1.93353 0.64451,0 -0.64452,1.93353 0,1.93353 0.91147,0 1.02205,-1.93353 1.93353,-1.93353 0.64451,0 -0.64451,1.93353 0,1.93353 0.91148,0 1.02206,-1.93353 1.93353,-1.93353 0.64452,0 -0.64451,1.93353 0,1.93353 0.91148,0 1.02206,-1.93353 1.93354,-1.93353 0.64451,0 0,1.28902 0,1.93353 0.64451,-0.64451 1.11828,-1.52591 1.93353,-1.93353 0.57647,-0.28824 1.93354,-0.64452 1.93354,0 0,0.91147 -2.84501,1.93353 -1.93354,1.93353 1.44118,0 2.4259,-1.93353 3.86707,-1.93353 0.64452,0 0.64452,1.93353 0,1.93353 -0.64451,0 -0.45573,-1.4778 0,-1.93353 0.45574,-0.45574 1.4778,-0.45574 1.93354,0 0.45574,0.45573 -0.64451,1.93353 0,1.93353 0.91148,0 1.11828,-1.52591 1.93353,-1.93353 0.57647,-0.28824 1.93354,-0.64452 1.93354,0 0,0.91147 -1.28903,2.57804 -1.93354,1.93353 -1.73107,-1.73107 5.80061,-2.52701 5.80061,-1.93353 0,0.91147 -2.84501,1.93353 -1.93354,1.93353 1.44117,0 2.4259,-1.93353 3.86707,-1.93353 0.91148,0 -2.84501,1.93353 -1.93353,1.93353 1.44117,0 2.4259,-1.93353 3.86707,-1.93353 0.64451,0 -0.64451,1.93353 0,1.93353 0.91147,0 1.02205,-1.93353 1.93353,-1.93353 0.64451,0 -0.64451,1.93353 0,1.93353 0.91148,0 1.11829,-1.52591 1.93354,-1.93353 0.57646,-0.28824 1.93353,-0.64452 1.93353,0 0,0.91147 -2.84501,1.93353 -1.93353,1.93353 1.44117,0 2.42589,-1.93353 3.86707,-1.93353 0.64451,0 -0.64452,1.93353 0,1.93353 0.91147,0 1.11828,-1.52591 1.93353,-1.93353 5.15609,-2.57805 -0.64451,1.93353 1.93354,1.93353 0.75509,0 2.17759,-3.62301 3.86706,-1.93353 0.45574,0.45573 -0.64451,1.93353 0,1.93353 0.91148,0 1.02206,-1.93353 1.93354,-1.93353 0.64451,0 -0.64451,1.93353 0,1.93353 0.91148,0 1.11828,-1.52591 1.93353,-1.93353 0.57647,-0.28824 1.93354,-0.64452 1.93354,0 0,0.91147 -2.84501,1.93353 -1.93354,1.93353 1.44118,0 2.4259,-1.93353 3.86707,-1.93353 0.64452,0 -0.64451,1.93353 0,1.93353 0.91148,0 1.02206,-1.93353 1.93354,-1.93353 0.64451,0 -0.64451,1.93353 0,1.93353 0.91148,0 1.11828,-1.52591 1.93353,-1.93353 0.57647,-0.28824 1.93354,-0.64452 1.93354,0 0,0.91147 -2.84501,1.93353 -1.93354,1.93353 1.44117,0 2.4259,-1.93353 3.86707,-1.93353 0.64451,0 -0.64451,1.93353 0,1.93353 0.91148,0 1.02206,-1.93353 1.93354,-1.93353 0.64451,0 0,1.28902 0,1.93353 0.64451,-0.64451 1.11828,-1.52591 1.93353,-1.93353 0.57647,-0.28824 1.93354,-0.64452 1.93354,0 0,0.91147 -2.84501,1.93353 -1.93354,1.93353 1.44117,0 2.49986,-1.4778 3.86707,-1.93353 7.73414,-2.57805 -3.22256,1.93353 1.93354,1.93353 0.91147,0 1.11828,-1.52591 1.93353,-1.93353 0.57647,-0.28824 1.93354,-0.64452 1.93354,0 0,0.91147 -1.28903,2.57804 -1.93354,1.93353 -0.64451,-0.64451 1.02206,-1.93353 1.93354,-1.93353 0.91147,0 1.02205,1.93353 1.93353,1.93353 0.91148,0 1.02206,-1.93353 1.93354,-1.93353 0.64451,0 -0.64452,1.93353 0,1.93353 0.75509,0 2.17759,-3.62301 3.86706,-1.93353 0.45574,0.45573 -0.64451,1.93353 0,1.93353 0.91148,0 1.11829,-1.52591 1.93354,-1.93353 0.57647,-0.28824 1.93353,-0.64452 1.93353,0 0,0.91147 -2.84501,1.93353 -1.93353,1.93353 1.44117,0 2.4259,-1.93353 3.86707,-1.93353 0.64451,0 0,1.28902 0,1.93353 0.64451,-0.64451 1.11828,-1.52591 1.93353,-1.93353 5.1561,-2.57805 -0.64451,1.93353 1.93354,1.93353 0.91148,0 1.11828,-1.52591 1.93353,-1.93353 0.57647,-0.28824 1.28903,0 1.93354,0 0.64451,0 1.47779,-0.45574 1.93353,0 0.45574,0.45573 -0.64451,1.93353 0,1.93353 0.7551,0 2.1776,-3.62301 3.86707,-1.93353 0.45574,0.45573 -0.64451,1.93353 0,1.93353 0.91148,0 1.02206,-1.93353 1.93354,-1.93353 0.64451,0 -0.64451,1.93353 0,1.93353 0.91147,0 1.02205,-1.93353 1.93353,-1.93353 0.64451,0 -0.64451,1.93353 0,1.93353 0.91148,0 1.11829,-1.52591 1.93354,-1.93353 0.57647,-0.28824 1.28902,0 1.93353,0 0.64451,0 1.4778,-0.45574 1.93354,0 0.45573,0.45573 -0.64452,1.93353 0,1.93353 0.91147,0 1.02205,-1.93353 1.93353,-1.93353 0.64451,0 0,1.28902 0,1.93353 0.64451,-0.64451 1.11829,-1.52591 1.93354,-1.93353 0.57646,-0.28824 1.93353,-0.64452 1.93353,0 0,5.15609 -5.15609,0 0,0 0.64451,0 -0.64451,1.93353 0,1.93353 0.91148,0 1.02206,-1.93353 1.93353,-1.93353 0.91148,0 1.11829,1.52591 1.93354,1.93353 0.35478,0.17739 5.8006,-0.14191 5.8006,0 0,0.64451 -2.57804,0 -1.93353,0 1.28902,0 2.57805,0 3.86707,0 0.64451,0 -1.93354,0.64451 -1.93354,0 0,-0.64451 1.28903,0 1.93354,0 0.64451,0 1.28902,0 1.93353,0 0.64452,0 1.28903,0 1.93354,0 0.64451,0 1.93353,-0.64451 1.93353,0 0,0.64451 -2.57804,0 -1.93353,0 1.28902,0 2.57804,0 3.86707,0 0.64451,0 -1.93354,0.64451 -1.93354,0 0,-0.64451 1.28903,0 1.93354,0 0.64451,0 1.28902,0 1.93353,0 0.64451,0 1.28903,0 1.93354,0 0.64451,0 1.93353,-0.64451 1.93353,0 0,0.64451 -2.57804,0 -1.93353,0 17.63772,0 28.78939,0 42.53776,0 1.28902,0 2.57805,0 3.86707,0 0.64451,0 1.93354,-0.64451 1.93354,0 0,0.64451 -2.57805,0 -1.93354,0 1.28902,0 2.57805,0 3.86707,0 0.64451,0 1.4778,0.45574 1.93354,0 0.45573,-0.45574 -0.45574,-1.4778 0,-1.93353 0.45573,-0.45574 1.47779,-0.45574 1.93353,0 0.45574,0.45573 -0.64451,1.93353 0,1.93353 0.91148,0 1.11828,-1.52591 1.93353,-1.93353 0.57647,-0.28824 1.93354,-0.64452 1.93354,0 0,0.91147 -1.28902,2.57804 -1.93354,1.93353 -1.63418,-1.63418 3.86707,-2.46746 3.86707,-1.93353 0,0.91147 -2.57804,1.28902 -1.93353,1.93353 5.47835,5.47835 3.38369,-1.45015 3.86707,-1.93353 0.45574,-0.45574 1.4778,-0.45574 1.93353,0 0.45574,0.45573 -0.64451,1.93353 0,1.93353 0.91148,0 1.02206,-1.93353 1.93354,-1.93353 0.64451,0 -0.64451,1.93353 0,1.93353 0.91148,0 1.02206,-1.93353 1.93353,-1.93353 0.64451,0 -0.64451,1.93353 0,1.93353 0.91148,0 1.52591,-1.11828 1.93354,-1.93353 0.28823,-0.57647 -0.64451,-1.93354 0,-1.93354 0.64451,0 -0.64451,1.93354 0,1.93354 0.91147,0 1.11828,-1.52591 1.93353,-1.93354 0.57647,-0.28823 1.93354,-0.64451 1.93354,0 0,0.91148 -1.28903,2.57805 -1.93354,1.93354 -1.01906,-1.01907 2.84801,-2.9526 3.86707,-1.93354 0.45574,0.45574 -0.64451,1.93354 0,1.93354 0.91148,0 1.02206,-1.93354 1.93354,-1.93354 0.64451,0 -0.64451,1.93354 0,1.93354 0.91147,0 1.28902,-2.57805 1.93353,-1.93354 0.64451,0.64451 -2.84501,1.93354 -1.93353,1.93354 1.44117,0 2.42589,-1.93354 3.86707,-1.93354 0.64451,0 -0.64452,1.93354 0,1.93354 0.91147,0 1.02205,-1.93354 1.93353,-1.93354 0.64451,0 -0.64451,1.93354 0,1.93354 0.91148,0 1.02206,-1.93354 1.93354,-1.93354 0.64451,0 -0.64452,1.93354 0,1.93354 0.91147,0 1.28902,-2.57805 1.93353,-1.93354 0.64451,0.64451 -2.84501,1.93354 -1.93353,1.93354 1.44117,0 2.42589,-1.93354 3.86707,-1.93354 0.91147,0 -1.28903,2.57805 -1.93354,1.93354 -1.63418,-1.63418 3.86707,-2.46747 3.86707,-1.93354 0,0.64451 -2.57805,0 -1.93353,0 1.93353,0 3.86706,0 5.8006,0 0.64451,0 1.93353,-0.64451 1.93353,0 0,0.64451 -1.93353,0.64451 -1.93353,0 0,-0.64451 1.28902,0 1.93353,0 0.64452,0 1.28903,0 1.93354,0 0.64451,0 1.28902,0 1.93353,0 0.64452,0 1.93354,-0.64451 1.93354,0 0,0.64451 -2.57805,0 -1.93354,0 1.28903,0 2.57805,0 3.86707,0 6.93779,0 8.35392,0 11.60121,0"
       id="path4189"
       inkscape:connector-curvature="0" />
    <path
       style="fill:none;fill-rule:evenodd;stroke:#000000;stroke-width:1px;stroke-linecap:butt;stroke-linejoin:miter;stroke-opacity:1"
       d="m 435.04532,971.462 c 2.57804,-0.64451 5.15609,-1.28903 7.73414,-1.93354 0,0.64451 -0.64452,1.93354 0,1.93354 0.91147,0 1.02205,-1.93354 1.93353,-1.93354 0.64451,0 -0.64451,1.93354 0,1.93354 0.75509,0 2.1776,-3.62301 3.86707,-1.93354 0.45574,0.45574 -0.64451,1.93354 0,1.93354 0.91148,0 1.11829,-1.52591 1.93354,-1.93354 5.15609,-2.57804 -0.64452,1.93354 1.93353,1.93354 0.91148,0 1.11828,-1.52591 1.93353,-1.93354 0.57647,-0.28823 1.28903,0 1.93354,0 0.64451,0 1.28902,0 1.93353,0 0.64452,0 1.4778,-0.45574 1.93354,0 0.45574,0.45574 -0.64451,1.93354 0,1.93354 0.75509,0 2.1776,-3.62301 3.86707,-1.93354 0.45574,0.45574 -0.64451,1.93354 0,1.93354 0.91148,0 1.11828,-1.52591 1.93353,-1.93354 5.1561,-2.57804 -0.64451,1.93354 1.93354,1.93354 0.91147,0 1.11828,-1.52591 1.93353,-1.93354 5.1561,-2.57804 -0.64451,1.93354 1.93354,1.93354 0.91147,0 1.11828,-1.52591 1.93353,-1.93354 0.57647,-0.28823 1.28903,0 1.93354,0 0.64451,0 1.93353,-0.64451 1.93353,0 0,0.91148 -1.28902,2.57805 -1.93353,1.93354 -0.64451,-0.64451 1.02205,-1.93354 1.93353,-1.93354 0.91148,0 1.02206,1.93354 1.93354,1.93354 0.64451,0 -0.45574,-1.4778 0,-1.93354 0.45573,-0.45574 1.47779,-0.45574 1.93353,0 0.45574,0.45574 -0.64451,1.93354 0,1.93354 0.91148,0 1.02206,-1.93354 1.93354,-1.93354 0.64451,0 -0.64452,1.93354 0,1.93354 0.91147,0 1.02205,-1.93354 1.93353,-1.93354 0.64451,0 -0.64451,1.93354 0,1.93354 0.91148,0 1.02206,-1.93354 1.93354,-1.93354 0.64451,0 -0.64452,1.93354 0,1.93354 0.91147,0 1.02205,-1.93354 1.93353,-1.93354 0.64451,0 -0.64451,1.93354 0,1.93354 0.91148,0 1.28902,-2.57805 1.93353,-1.93354 0.64452,0.64451 -1.28902,2.57805 -1.93353,1.93354 -1.63418,-1.63418 3.86707,-2.46747 3.86707,-1.93354 0,0.91148 -1.93354,1.02206 -1.93354,1.93354 0,0.64451 1.35707,0.28823 1.93354,0 0.81525,-0.40763 1.02206,-1.93354 1.93353,-1.93354 0.64452,0 0.64452,1.93354 0,1.93354 -0.64451,0 -0.45573,-1.4778 0,-1.93354 0.45574,-0.45574 1.4778,-0.45574 1.93354,0 0.45574,0.45574 -0.64451,1.93354 0,1.93354 0.91148,0 1.28902,-2.57805 1.93353,-1.93354 0.64452,0.64451 -2.84501,1.93354 -1.93353,1.93354 1.44117,0 2.4259,-1.93354 3.86707,-1.93354 0.64451,0 -0.64451,1.93354 0,1.93354 0.91148,0 1.02206,-1.93354 1.93353,-1.93354 0.64451,0 0.64451,1.93354 0,1.93354 -0.64451,0 -0.45574,-1.4778 0,-1.93354 0.45574,-0.45574 1.28903,0 1.93354,0 0.64451,0 1.47779,-0.45574 1.93353,0 0.45574,0.45574 0.45574,1.4778 0,1.93354 -0.45574,0.45574 -2.57804,0 -1.93353,0 4.18905,0 7.89613,0 11.60121,0 0.64451,0 -1.93354,0.64451 -1.93354,0 0,-0.64451 1.28902,0 1.93354,0 0.64451,0 1.28902,0 1.93353,0 0.64451,0 1.28902,0 1.93354,0 0.64451,0 1.93353,-0.64451 1.93353,0 0,0.64451 -2.57805,0 -1.93353,0 8.90365,0 13.91713,0 21.26888,0 0.64451,0 1.28902,0 1.93353,0 0.64451,0 1.93354,-0.64451 1.93354,0 0,0.64451 -2.57805,0 -1.93354,0 1.28903,0 2.57805,0 3.86707,0 1.28903,0 2.57805,0 3.86707,0 0.64451,0 1.93354,-0.64451 1.93354,0 0,0.64451 -2.57805,0 -1.93354,0 1.28902,0 2.57805,0 3.86707,0 0.64451,0 1.93354,-0.64451 1.93354,0 0,0.64451 -1.93354,0.64451 -1.93354,0 0,-0.64451 1.28902,0 1.93354,0 0.64451,0 1.28902,0 1.93353,0 2.58586,0 1.28121,0 3.86707,0 0.64451,0 1.93354,-0.64451 1.93354,0 0,0.64451 -1.93354,0.64451 -1.93354,0 0,-0.64451 1.28902,0 1.93354,0 0.64451,0 1.28902,0 1.93353,0 0.64451,0 1.93353,-0.64451 1.93353,0 0,0.64451 -2.57804,0 -1.93353,0 1.28902,0 2.57805,0 3.86707,0 0.64451,0 1.93353,-0.64451 1.93353,0 0,0.64451 -2.57804,0 -1.93353,0 1.28902,0 2.57805,0 3.86707,0 0.64451,0 1.93353,-0.64451 1.93353,0 0,0.64451 -2.57804,0 -1.93353,0 1.93353,0 3.86707,0 5.8006,0 0.64451,0 1.28903,0 1.93354,0 0.64451,0 1.93353,-0.64451 1.93353,0 0,0.64451 -2.57804,0 -1.93353,0 9.12622,0 6.79512,0 13.53474,0 0.64451,0 1.28902,0 1.93354,0 0.64451,0 1.93353,-0.64451 1.93353,0 0,0.64451 -2.57805,0 -1.93353,0 1.28902,0 2.57804,0 3.86707,0 0.64451,0 -1.93354,0.64451 -1.93354,0 0,-0.64451 1.28902,0 1.93354,0 1.28902,0 2.57804,0 3.86706,0 0.64452,0 1.93354,-0.64451 1.93354,0 0,0.64451 -2.57805,0 -1.93354,0 1.93354,0 3.86707,0 5.80061,0 1.93353,0 3.86707,0 5.8006,0 0.64451,0 1.93354,-0.64451 1.93354,0 0,0.64451 -2.57805,0 -1.93354,0 1.28903,0 2.57805,0 3.86707,0 0.64451,0 1.93354,-0.64451 1.93354,0 0,0.64451 -1.93354,0.64451 -1.93354,0 0,-0.64451 1.28903,0 1.93354,0 1.28902,0 2.57804,0 3.86707,0 0.64451,0 1.28902,0 1.93353,0 0.64451,0 1.93354,-0.64451 1.93354,0 0,0.64451 -1.93354,0.64451 -1.93354,0 0,-0.91148 1.11829,-1.52591 1.93354,-1.93354 0.57646,-0.28823 1.28902,0 1.93353,0 0.64451,0 1.93354,-0.64451 1.93354,0 0,0.91148 -1.28903,2.57805 -1.93354,1.93354 -0.64451,-0.64451 1.02206,-1.93354 1.93354,-1.93354 0.91147,0 1.02205,1.93354 1.93353,1.93354 0.64451,0 -0.45574,-1.4778 0,-1.93354 0.45574,-0.45574 1.28902,0 1.93354,0 0.64451,0 1.93353,-0.64451 1.93353,0 0,0.91148 -2.84501,1.93354 -1.93353,1.93354 1.44117,0 2.49985,-1.4778 3.86706,-1.93354 7.73414,-2.57804 -3.22255,1.93354 1.93354,1.93354 0.91148,0 1.28902,-2.57805 1.93353,-1.93354 0.64452,0.64451 -1.28902,2.57805 -1.93353,1.93354 -1.73107,-1.73107 5.8006,-2.52701 5.8006,-1.93354 0,0.91148 -1.28902,2.57805 -1.93353,1.93354 -0.64451,-0.64451 1.02206,-1.93354 1.93353,-1.93354 0.91148,0 1.02206,1.93354 1.93354,1.93354 0.64451,0 -0.45574,-1.4778 0,-1.93354 0.45574,-0.45574 1.93353,-0.64451 1.93353,0 0,0.91148 -1.93353,1.02206 -1.93353,1.93354 0,2.73034 3.01936,-1.93354 5.8006,-1.93354 0.64451,0 -0.64451,1.93354 0,1.93354 0.91148,0 1.02206,-1.93354 1.93354,-1.93354 0.64451,0 -0.64451,1.93354 0,1.93354 0.91147,0 1.02206,-1.93354 1.93353,-1.93354 0.64451,0 -0.64451,1.93354 0,1.93354 0.75509,0 2.1776,-3.62301 3.86707,-1.93354 0.45574,0.45574 -0.64451,1.93354 0,1.93354 0.91148,0 1.02206,-1.93354 1.93354,-1.93354 0.64451,0 -0.64452,1.93354 0,1.93354 0.91147,0 1.02205,-1.93354 1.93353,-1.93354 0.64451,0 -0.64451,1.93354 0,1.93354 0.91148,0 1.02206,-1.93354 1.93354,-1.93354 0.64451,0 -0.64452,1.93354 0,1.93354 0.75509,0 2.17759,-3.62301 3.86707,-1.93354 0.45573,0.45574 0.64451,1.93354 0,1.93354 -2.57805,0 1.93353,-4.51158 1.93353,-1.93354 0,5.1561 -5.15609,0 0,0 0.64451,0 -0.64451,1.93354 0,1.93354 0.91148,0 1.02206,-1.93354 1.93353,-1.93354 0.64452,0 -0.64451,1.93354 0,1.93354 0.7551,0 2.1776,-3.62301 3.86707,-1.93354 0.45574,0.45574 0.64452,1.93354 0,1.93354 -2.57804,0 1.93354,-4.51158 1.93354,-1.93354 0,5.1561 -5.15609,0 0,0 0.64451,0 -0.64451,1.93354 0,1.93354 0.91148,0 1.02206,-1.93354 1.93353,-1.93354 0.91148,0 1.02206,1.93354 1.93354,1.93354 0.91148,0 1.02206,-1.93354 1.93353,-1.93354 0.64451,0 -0.64451,1.93354 0,1.93354 0.91148,0 1.02206,-1.93354 1.93354,-1.93354 0.64451,0 -0.64451,1.93354 0,1.93354 0.91148,0 1.02206,-1.93354 1.93353,-1.93354 0.64451,0 -0.64451,1.93354 0,1.93354 0.91148,0 1.11829,-1.52591 1.93354,-1.93354 0.57647,-0.28823 1.93353,-0.64451 1.93353,0 0,0.91148 -1.28902,2.57805 -1.93353,1.93354 -0.64451,-0.64451 1.02206,-1.93354 1.93353,-1.93354 0.64451,0 -0.64451,1.93354 0,1.93354 0.91148,0 1.11829,-1.52591 1.93354,-1.93354 0.57647,-0.28823 1.93353,-0.64451 1.93353,0 0,0.91148 -1.28902,2.57805 -1.93353,1.93354 -2.28708,-2.28708 7.73414,-2.1691 7.73414,-1.93354 0,0.91148 -1.28903,2.57805 -1.93354,1.93354 -0.64451,-0.64451 1.02206,-1.93354 1.93354,-1.93354 0.64451,0 -0.64452,1.93354 0,1.93354 0.91147,0 1.02205,-1.93354 1.93353,-1.93354 0.91148,0 1.02206,1.93354 1.93354,1.93354 0.91147,0 1.02205,-1.93354 1.93353,-1.93354 0.64451,0 -0.64451,1.93354 0,1.93354 0.91148,0 1.52591,-1.11829 1.93353,-1.93354 0.28824,-0.57647 -0.64451,-1.93353 0,-1.93353 0.64452,0 -0.64451,1.93353 0,1.93353 0.91148,0 1.02206,-1.93353 1.93354,-1.93353 0.64451,0 -0.64451,1.93353 0,1.93353 0.91148,0 1.02206,-1.93353 1.93353,-1.93353 0.64452,0 -0.64451,1.93353 0,1.93353 0.91148,0 1.02206,-1.93353 1.93354,-1.93353 0.64451,0 -0.64451,1.93353 0,1.93353 0.91148,0 1.02206,-1.93353 1.93353,-1.93353 0.64452,0 -0.64451,1.93353 0,1.93353 0.91148,0 1.02206,-1.93353 1.93354,-1.93353 0.64451,0 -0.64451,1.93353 0,1.93353 0.91148,0 1.02206,-1.93353 1.93353,-1.93353 0.64452,0 -0.64451,1.93353 0,1.93353 0.91148,0 1.02206,-1.93353 1.93354,-1.93353 0.64451,0 -0.64451,1.93353 0,1.93353 0.91148,0 1.02206,-1.93353 1.93353,-1.93353 0.64451,0 -0.64451,1.93353 0,1.93353 0.91148,0 1.02206,-1.93353 1.93354,-1.93353 0.64451,0 -0.64451,1.93353 0,1.93353 0.91147,0 1.02206,-1.93353 1.93353,-1.93353 0.64451,0 0.64451,1.93353 0,1.93353 -0.64451,0 -0.45574,-1.47779 0,-1.93353 0.45574,-0.45574 1.28903,0 1.93354,0 7.30446,0 -8.59349,0 3.86707,0 0.64451,0 -1.93354,0.64451 -1.93354,0 0,-0.64451 1.28903,0 1.93354,0 0.64451,0 1.28902,0 1.93353,0 0.64451,0 1.28902,0 1.93354,0 0.64451,0 1.93353,-0.64451 1.93353,0 0,0.64451 -2.57805,0 -1.93353,0 2.57804,0 5.15609,0 7.73414,0 0.64451,0 1.93353,-0.64451 1.93353,0 0,0.64451 -1.93353,0.64451 -1.93353,0 0,-0.64451 1.93353,-0.64451 1.93353,0 0,0.64451 -2.57805,0 -1.93353,0 2.57804,0 5.15609,0 7.73413,0 0.64452,0 1.93354,-0.64451 1.93354,0 0,0.64451 -2.57805,0 -1.93354,0 2.57805,0 5.1561,0 7.73414,0 0.64451,0 1.93354,-0.64451 1.93354,0 0,1.68947 -6.41273,-1.93354 0,-1.93354 0.64451,0 -0.64451,1.93354 0,1.93354 0.75509,0 2.1776,-3.62301 3.86707,-1.93354 0.45574,0.45574 0.64451,1.93354 0,1.93354 -0.64451,0 -0.45574,-1.4778 0,-1.93354 0.45574,-0.45573 1.47779,-0.45573 1.93353,0 0.45574,0.45574 -0.64451,1.93354 0,1.93354 0.75509,0 2.1776,-3.62301 3.86707,-1.93354 0.45574,0.45574 -0.64451,1.93354 0,1.93354 0.91148,0 1.02206,-1.93354 1.93354,-1.93354 0.64451,0 -0.64452,1.93354 0,1.93354 0.91147,0 1.02205,-1.93354 1.93353,-1.93354 0.64451,0 -0.64451,1.93354 0,1.93354 0.91148,0 1.28902,-2.57805 1.93354,-1.93354 0.64451,0.64452 -2.84502,1.93354 -1.93354,1.93354 1.44117,0 2.4259,-1.93354 3.86707,-1.93354 0.64451,0 -0.64451,1.93354 0,1.93354 0.91148,0 1.02206,-1.93354 1.93354,-1.93354 0.64451,0 -0.64452,1.93354 0,1.93354 0.91147,0 1.02205,-1.93354 1.93353,-1.93354 0.64451,0 0.64451,1.93354 0,1.93354 -2.57805,0 1.93353,-4.51158 1.93353,-1.93354 0,0.91148 -2.84501,1.93354 -1.93353,1.93354 1.44117,0 2.4259,-1.93354 3.86707,-1.93354 0.64451,0 -0.64451,1.93354 0,1.93354 0.91148,0 1.02206,-1.93354 1.93353,-1.93354 0.64452,0 -0.64451,1.93354 0,1.93354 0.91148,0 1.02206,-1.93354 1.93354,-1.93354 0.64451,0 0.64451,1.93354 0,1.93354 -0.64451,0 -0.45574,-1.4778 0,-1.93354 0.45574,-0.45573 1.28902,0 1.93353,0 0.64452,0 1.93354,-0.64451 1.93354,0 0,0.91148 -1.28902,2.57805 -1.93354,1.93354 -1.63418,-1.63418 3.86707,-2.46747 3.86707,-1.93354 0,0.91148 -1.28902,2.57805 -1.93353,1.93354 -0.64451,-0.64451 1.02206,-1.93354 1.93353,-1.93354 0.91148,0 1.02206,1.93354 1.93354,1.93354 0.64451,0 -0.45574,-1.4778 0,-1.93354 0.45574,-0.45573 1.28902,0 1.93353,0 0.64451,0 1.93354,-0.64451 1.93354,0 0,0.91148 -1.28903,2.57805 -1.93354,1.93354 -0.64451,-0.64451 1.02206,-1.93354 1.93354,-1.93354 0.64451,0 -0.64451,1.93354 0,1.93354 0.91147,0 1.02206,-1.93354 1.93353,-1.93354 0.64451,0 -0.64451,1.93354 0,1.93354 0.91148,0 1.02206,-1.93354 1.93354,-1.93354 0.64451,0 0.64451,1.93354 0,1.93354 -2.57805,0 1.93353,-4.51158 1.93353,-1.93354 0,0.91148 -2.84501,1.93354 -1.93353,1.93354 1.44117,0 2.42589,-1.93354 3.86707,-1.93354 0.91147,0 -1.93354,1.02206 -1.93354,1.93354 0,0.64451 1.35707,0.28823 1.93354,0 0.81525,-0.40763 1.28902,-2.57805 1.93353,-1.93354 0.64451,0.64452 -1.93353,1.02206 -1.93353,1.93354 0,0.64451 1.35706,0.28823 1.93353,0 0.81525,-0.40763 1.02206,-1.93354 1.93354,-1.93354 0.64451,0 0.64451,1.93354 0,1.93354 -2.57805,0 1.93353,-4.51158 1.93353,-1.93354 0,0.64452 -2.57805,0 -1.93353,0 1.28902,0 2.57804,0 3.86707,0 0.64451,0 -2.57805,0 -1.93354,0 12.46056,0 -3.43739,0 3.86707,0 0.64451,0 1.28902,0 1.93353,0 0.64452,0 1.93354,-0.64451 1.93354,0 0,0.64452 -2.57805,0 -1.93354,0 1.28903,0 2.57805,0 3.86707,0 0.64452,0 -2.57804,0 -1.93353,0 3.53399,0 8.06722,0 11.60121,0 0.64451,0 -1.93354,0.64452 -1.93354,0 0,-0.64451 1.28903,0 1.93354,0 0.64451,0 1.28902,0 1.93353,0 0.64451,0 1.93354,-0.64451 1.93354,0 0,0.64452 -2.57805,0 -1.93354,0 1.28903,0 2.57805,0 3.86707,0 0.64451,0 -2.57804,0 -1.93353,0 3.65223,0 5.58576,0 1.93353,0"
       id="path4191"
       inkscape:connector-curvature="0" />
    <rect
       style="fill:#c20000;fill-opacity:1;stroke:#000000;stroke-width:0.97538245;stroke-opacity:1"
       id="rect4195"
       width="185.7411"
       height="92.83429"
       x="249.41367"
       y="1055.1959" />
    <rect
       style="fill:#ffffff;fill-opacity:1;stroke:#000000;stroke-opacity:1"
       id="rect4199"
       width="344.16919"
       height="94.743202"
       x="488.53741"
       y="1058.2744" />
    <path
       style="fill:none;fill-rule:evenodd;stroke:#ffffff;stroke-width:4;stroke-linecap:butt;stroke-linejoin:miter;stroke-miterlimit:4;stroke-dasharray:none;stroke-opacity:1"
       d="m 268.29217,1074.8395 143.08157,0"
       id="path4201"
       inkscape:connector-curvature="0" />
    <path
       style="fill:none;fill-rule:evenodd;stroke:#ffffff;stroke-width:4;stroke-linecap:butt;stroke-linejoin:miter;stroke-miterlimit:4;stroke-dasharray:none;stroke-opacity:1"
       d="m 268.89588,1093.1325 143.08157,0"
       id="path4201-1"
       inkscape:connector-curvature="0" />
    <path
       style="fill:none;fill-rule:evenodd;stroke:#ffffff;stroke-width:4;stroke-linecap:butt;stroke-linejoin:miter;stroke-miterlimit:4;stroke-dasharray:none;stroke-opacity:1"
       d="m 270.2631,1110.9063 143.08157,0"
       id="path4201-7"
       inkscape:connector-curvature="0" />
    <path
       style="fill:none;fill-rule:evenodd;stroke:#ffffff;stroke-width:4;stroke-linecap:butt;stroke-linejoin:miter;stroke-miterlimit:4;stroke-dasharray:none;stroke-opacity:1"
       d="m 269.52867,1129.313 143.08157,0"
       id="path4201-2"
       inkscape:connector-curvature="0" />
    <path
       style="fill:none;fill-rule:evenodd;stroke:#000000;stroke-width:4;stroke-linecap:butt;stroke-linejoin:miter;stroke-miterlimit:4;stroke-dasharray:none;stroke-opacity:1"
       d="m 460.75163,1054.7488 -1.36721,92.9707"
       id="path4232"
       inkscape:connector-curvature="0" />
    <path
       style="fill:none;fill-rule:evenodd;stroke:#000000;stroke-width:5.46925974;stroke-linecap:butt;stroke-linejoin:miter;stroke-miterlimit:4;stroke-dasharray:none;stroke-opacity:1"
       d="m 526.31608,1073.8899 267.49818,0"
       id="path4201-22"
       inkscape:connector-curvature="0" />
    <path
       style="fill:none;fill-rule:evenodd;stroke:#000000;stroke-width:5.46925974;stroke-linecap:butt;stroke-linejoin:miter;stroke-miterlimit:4;stroke-dasharray:none;stroke-opacity:1"
       d="m 526.36691,1094.3981 267.49818,0"
       id="path4201-22-8"
       inkscape:connector-curvature="0" />
    <path
       style="fill:none;fill-rule:evenodd;stroke:#000000;stroke-width:5.46925974;stroke-linecap:butt;stroke-linejoin:miter;stroke-miterlimit:4;stroke-dasharray:none;stroke-opacity:1"
       d="m 526.99969,1116.2735 267.49814,0"
       id="path4201-22-0"
       inkscape:connector-curvature="0" />
    <path
       style="fill:none;fill-rule:evenodd;stroke:#000000;stroke-width:5.46925974;stroke-linecap:butt;stroke-linejoin:miter;stroke-miterlimit:4;stroke-dasharray:none;stroke-opacity:1"
       d="m 525.63247,1134.0474 267.49818,0"
       id="path4201-22-5"
       inkscape:connector-curvature="0" />
    <rect
       style="fill:none;fill-opacity:1;stroke:#000000;stroke-opacity:1"
       id="rect4195-4"
       width="195.287"
       height="92.809669"
       x="858.04016"
       y="1058.931" />
    <path
       style="fill:none;fill-rule:evenodd;stroke:#000000;stroke-width:1px;stroke-linecap:butt;stroke-linejoin:miter;stroke-opacity:1"
       d="m 859.97857,1150.4539 191.41013,-88.869"
       id="path4291"
       inkscape:connector-curvature="0" />
    <path
       style="fill:none;fill-rule:evenodd;stroke:#000000;stroke-width:1px;stroke-linecap:butt;stroke-linejoin:miter;stroke-opacity:1"
       d="m 859.97857,1060.2177 191.41013,88.869"
       id="path4293"
       inkscape:connector-curvature="0" />
    <path
       style="fill:none;fill-rule:evenodd;stroke:#000000;stroke-width:1.2830466px;stroke-linecap:butt;stroke-linejoin:miter;stroke-opacity:1"
       d="M 231.11551,853.56499 1048.3085,655.73543"
       id="path4295"
       inkscape:connector-curvature="0" />
    <path
       style="fill:none;fill-rule:evenodd;stroke:#000000;stroke-width:1.30853438px;stroke-linecap:butt;stroke-linejoin:miter;stroke-opacity:1"
       d="M 229.54174,656.91955 1048.9097,844.86713"
       id="path4297"
       inkscape:connector-curvature="0" />
    <path
       style="fill:none;fill-rule:evenodd;stroke:#ffffff;stroke-width:2.43092465;stroke-linecap:butt;stroke-linejoin:miter;stroke-miterlimit:4;stroke-dasharray:none;stroke-opacity:1"
       d="m 994.92422,570.65647 52.84528,0"
       id="path4201-0"
       inkscape:connector-curvature="0" />
    <path
       style="fill:none;fill-rule:evenodd;stroke:#ffffff;stroke-width:2.43092465;stroke-linecap:butt;stroke-linejoin:miter;stroke-miterlimit:4;stroke-dasharray:none;stroke-opacity:1"
       d="m 995.55702,581.59421 52.84528,0"
       id="path4201-0-5"
       inkscape:connector-curvature="0" />
    <path
       style="fill:none;fill-rule:evenodd;stroke:#ffffff;stroke-width:2.43092465;stroke-linecap:butt;stroke-linejoin:miter;stroke-miterlimit:4;stroke-dasharray:none;stroke-opacity:1"
       d="m 994.92422,592.53194 52.84528,0"
       id="path4201-0-5-2"
       inkscape:connector-curvature="0" />
    <path
       style="fill:none;fill-rule:evenodd;stroke:#ffffff;stroke-width:2.43092465;stroke-linecap:butt;stroke-linejoin:miter;stroke-miterlimit:4;stroke-dasharray:none;stroke-opacity:1"
       d="m 994.92422,604.83688 52.84528,0"
       id="path4201-0-5-9"
       inkscape:connector-curvature="0" />
    <ellipse
       style="fill:none;fill-opacity:1;stroke:#000000;stroke-width:6;stroke-miterlimit:4;stroke-dasharray:none;stroke-opacity:1"
       id="path4356"
       cx="1073.431"
       cy="653.22034"
       rx="10.254116"
       ry="9.570508" />
    <path
       style="fill:none;fill-rule:evenodd;stroke:#000000;stroke-width:1px;stroke-linecap:butt;stroke-linejoin:miter;stroke-opacity:1"
       d="m 1073.3509,649.18543 0.1208,8.09668"
       id="path4358"
       inkscape:connector-curvature="0" />
    <path
       style="fill:none;fill-rule:evenodd;stroke:#000000;stroke-width:1px;stroke-linecap:butt;stroke-linejoin:miter;stroke-opacity:1"
       d="m 1069.1213,653.23377 8.5196,-0.0604"
       id="path4360"
       inkscape:connector-curvature="0" />
    <ellipse
       style="fill:none;fill-opacity:1;stroke:#ffffff;stroke-width:7.64651966;stroke-miterlimit:4;stroke-dasharray:none;stroke-opacity:1"
       id="path4362"
       cx="252.21367"
       cy="584.25641"
       rx="22.341724"
       ry="38.503338" />
    <path
       style="fill:none;fill-rule:evenodd;stroke:#000000;stroke-width:1px;stroke-linecap:butt;stroke-linejoin:miter;stroke-opacity:1"
       d="m 239.19192,1004.5307 800.53868,-2.1549"
       id="path4364"
       inkscape:connector-curvature="0" />
  </g>
</svg>
